<svg width="128" height="128" viewBox="0 0 128 128" xmlns="http://www.w3.org/2000/svg" role="img" aria-label="Love Cube">
  <defs>
    <linearGradient id="bg" x1="16" y1="10" x2="112" y2="118" gradientUnits="userSpaceOnUse">
      <stop offset="0" stop-color="#ff4f87"/>
      <stop offset="0.46" stop-color="#ff6f9d"/>
      <stop offset="1" stop-color="#f33f86"/>
    </linearGradient>
    <radialGradient id="glow" cx="0" cy="0" r="1" gradientUnits="userSpaceOnUse" gradientTransform="translate(94 28) rotate(121) scale(96 72)">
      <stop stop-color="#ffffff" stop-opacity="0.44"/>
      <stop offset="0.42" stop-color="#ffffff" stop-opacity="0.12"/>
      <stop offset="1" stop-color="#ffffff" stop-opacity="0"/>
    </radialGradient>
    <filter id="shadow" x="17" y="21" width="94" height="89" filterUnits="userSpaceOnUse" color-interpolation-filters="sRGB">
      <feDropShadow dx="0" dy="4" stdDeviation="3" flood-color="#c31659" flood-opacity="0.22"/>
    </filter>
  </defs>
  <rect width="128" height="128" rx="24" fill="url(#bg)"/>
  <rect width="128" height="128" rx="24" fill="url(#glow)"/>
  <g filter="url(#shadow)" fill="#ffffff">
    <path d="M64 22.5 86.8 35.7 64 48.9 41.2 35.7 64 22.5Z"/>
    <path d="M35.8 43.3 59.3 56.8v26.5L35.8 69.8V43.3Z"/>
    <path d="M92.2 43.3 68.7 56.8v26.5l23.5-13.5V43.3Z"/>
    <path d="M25.5 36.9c6.2-5.8 15.3-5.2 20.6 1.2 5.3-6.4 14.4-7 20.6-1.2 4.9 4.7 5.3 12.6 1.1 18.5-4.1-3.7-11.8-8.2-21.7-13.7-9.9 5.5-17.6 10-21.7 13.7-4.2-5.9-3.8-13.8 1.1-18.5Z" opacity="0.96"/>
    <path d="M101.5 36.9c-6.2-5.8-15.3-5.2-20.6 1.2-2 2.4-3.4 5.5-3.8 9.1l16.8-9.7 9.7 5.6c-.4-2.4-1.1-4.5-2.1-6.2Z" opacity="0.96"/>
  </g>
</svg>
